<mxfile host="app.diagrams.net" agent="Mozilla/5.0 (Windows NT 10.0; Win64; x64) AppleWebKit/537.36 (KHTML, like Gecko) Chrome/138.0.0.0 Safari/537.36 Edg/138.0.0.0" version="28.1.0">
  <diagram name="Page-1" id="uqC2h7wUhJgqs46FaHUE">
    <mxGraphModel dx="2024" dy="1824" grid="1" gridSize="10" guides="1" tooltips="1" connect="1" arrows="1" fold="1" page="1" pageScale="1" pageWidth="827" pageHeight="1169" math="0" shadow="0">
      <root>
        <mxCell id="0" />
        <mxCell id="1" parent="0" />
        <mxCell id="s6KFAtXswkaMFqpEXBId-40" style="edgeStyle=orthogonalEdgeStyle;rounded=0;orthogonalLoop=1;jettySize=auto;html=1;" parent="1" source="L-X6BHngRJ-MXSbDgt_t-15" target="L-X6BHngRJ-MXSbDgt_t-80" edge="1">
          <mxGeometry relative="1" as="geometry">
            <mxPoint x="640" y="105" as="sourcePoint" />
            <mxPoint x="1030" y="420" as="targetPoint" />
            <Array as="points">
              <mxPoint x="1050" y="110" />
            </Array>
          </mxGeometry>
        </mxCell>
        <mxCell id="s6KFAtXswkaMFqpEXBId-63" value="depends on" style="edgeLabel;html=1;align=center;verticalAlign=middle;resizable=0;points=[];" parent="s6KFAtXswkaMFqpEXBId-40" vertex="1" connectable="0">
          <mxGeometry x="0.1324" y="1" relative="1" as="geometry">
            <mxPoint as="offset" />
          </mxGeometry>
        </mxCell>
        <mxCell id="s6KFAtXswkaMFqpEXBId-33" value="«interface»&lt;br&gt;&lt;b&gt;FirebaseREaltimeDatabase&lt;/b&gt;" style="html=1;whiteSpace=wrap;" parent="1" vertex="1">
          <mxGeometry x="1110" y="300" width="170" height="50" as="geometry" />
        </mxCell>
        <mxCell id="L-X6BHngRJ-MXSbDgt_t-7" value="&lt;span style=&quot;font-weight: 400;&quot;&gt;ProfileController&lt;/span&gt;" style="swimlane;fontStyle=1;align=center;verticalAlign=top;childLayout=stackLayout;horizontal=1;startSize=26;horizontalStack=0;resizeParent=1;resizeParentMax=0;resizeLast=0;collapsible=1;marginBottom=0;whiteSpace=wrap;html=1;" parent="1" vertex="1">
          <mxGeometry x="300" width="210" height="164" as="geometry">
            <mxRectangle x="230" y="50" width="130" height="30" as="alternateBounds" />
          </mxGeometry>
        </mxCell>
        <mxCell id="L-X6BHngRJ-MXSbDgt_t-8" value="-profileView: ProfileView" style="text;strokeColor=none;fillColor=none;align=left;verticalAlign=top;spacingLeft=4;spacingRight=4;overflow=hidden;rotatable=0;points=[[0,0.5],[1,0.5]];portConstraint=eastwest;whiteSpace=wrap;html=1;" parent="L-X6BHngRJ-MXSbDgt_t-7" vertex="1">
          <mxGeometry y="26" width="210" height="26" as="geometry" />
        </mxCell>
        <mxCell id="L-X6BHngRJ-MXSbDgt_t-12" value="-accountController: AccountController" style="text;strokeColor=none;fillColor=none;align=left;verticalAlign=top;spacingLeft=4;spacingRight=4;overflow=hidden;rotatable=0;points=[[0,0.5],[1,0.5]];portConstraint=eastwest;whiteSpace=wrap;html=1;" parent="L-X6BHngRJ-MXSbDgt_t-7" vertex="1">
          <mxGeometry y="52" width="210" height="26" as="geometry" />
        </mxCell>
        <mxCell id="L-X6BHngRJ-MXSbDgt_t-9" value="" style="line;strokeWidth=1;fillColor=none;align=left;verticalAlign=middle;spacingTop=-1;spacingLeft=3;spacingRight=3;rotatable=0;labelPosition=right;points=[];portConstraint=eastwest;strokeColor=inherit;" parent="L-X6BHngRJ-MXSbDgt_t-7" vertex="1">
          <mxGeometry y="78" width="210" height="8" as="geometry" />
        </mxCell>
        <mxCell id="L-X6BHngRJ-MXSbDgt_t-11" value="+UpdateProfile(profileData: Map)" style="text;strokeColor=none;fillColor=none;align=left;verticalAlign=top;spacingLeft=4;spacingRight=4;overflow=hidden;rotatable=0;points=[[0,0.5],[1,0.5]];portConstraint=eastwest;whiteSpace=wrap;html=1;" parent="L-X6BHngRJ-MXSbDgt_t-7" vertex="1">
          <mxGeometry y="86" width="210" height="26" as="geometry" />
        </mxCell>
        <mxCell id="L-X6BHngRJ-MXSbDgt_t-13" value="+showUserProfile()" style="text;strokeColor=none;fillColor=none;align=left;verticalAlign=top;spacingLeft=4;spacingRight=4;overflow=hidden;rotatable=0;points=[[0,0.5],[1,0.5]];portConstraint=eastwest;whiteSpace=wrap;html=1;" parent="L-X6BHngRJ-MXSbDgt_t-7" vertex="1">
          <mxGeometry y="112" width="210" height="26" as="geometry" />
        </mxCell>
        <mxCell id="L-X6BHngRJ-MXSbDgt_t-14" value="+handleLogout()" style="text;strokeColor=none;fillColor=none;align=left;verticalAlign=top;spacingLeft=4;spacingRight=4;overflow=hidden;rotatable=0;points=[[0,0.5],[1,0.5]];portConstraint=eastwest;whiteSpace=wrap;html=1;" parent="L-X6BHngRJ-MXSbDgt_t-7" vertex="1">
          <mxGeometry y="138" width="210" height="26" as="geometry" />
        </mxCell>
        <mxCell id="L-X6BHngRJ-MXSbDgt_t-15" value="AccountController" style="swimlane;fontStyle=1;align=center;verticalAlign=top;childLayout=stackLayout;horizontal=1;startSize=26;horizontalStack=0;resizeParent=1;resizeParentMax=0;resizeLast=0;collapsible=1;marginBottom=0;whiteSpace=wrap;html=1;" parent="1" vertex="1">
          <mxGeometry x="650" y="-20" width="270" height="190" as="geometry">
            <mxRectangle x="650" y="-20" width="140" height="30" as="alternateBounds" />
          </mxGeometry>
        </mxCell>
        <mxCell id="L-X6BHngRJ-MXSbDgt_t-16" value="&lt;span class=&quot;selected&quot;&gt;- accountView: AccountView&lt;/span&gt;" style="text;strokeColor=none;fillColor=none;align=left;verticalAlign=top;spacingLeft=4;spacingRight=4;overflow=hidden;rotatable=0;points=[[0,0.5],[1,0.5]];portConstraint=eastwest;whiteSpace=wrap;html=1;" parent="L-X6BHngRJ-MXSbDgt_t-15" vertex="1">
          <mxGeometry y="26" width="270" height="26" as="geometry" />
        </mxCell>
        <mxCell id="L-X6BHngRJ-MXSbDgt_t-20" value="&lt;span class=&quot;selected&quot;&gt;- firebaseAuth: FirebaseAuthentication&lt;/span&gt;" style="text;strokeColor=none;fillColor=none;align=left;verticalAlign=top;spacingLeft=4;spacingRight=4;overflow=hidden;rotatable=0;points=[[0,0.5],[1,0.5]];portConstraint=eastwest;whiteSpace=wrap;html=1;" parent="L-X6BHngRJ-MXSbDgt_t-15" vertex="1">
          <mxGeometry y="52" width="270" height="24" as="geometry" />
        </mxCell>
        <mxCell id="L-X6BHngRJ-MXSbDgt_t-21" value="&lt;span class=&quot;selected&quot;&gt;- firebaseDB: FirebaseRealtimeDatabase&lt;/span&gt;" style="text;strokeColor=none;fillColor=none;align=left;verticalAlign=top;spacingLeft=4;spacingRight=4;overflow=hidden;rotatable=0;points=[[0,0.5],[1,0.5]];portConstraint=eastwest;whiteSpace=wrap;html=1;" parent="L-X6BHngRJ-MXSbDgt_t-15" vertex="1">
          <mxGeometry y="76" width="270" height="24" as="geometry" />
        </mxCell>
        <mxCell id="L-X6BHngRJ-MXSbDgt_t-17" value="" style="line;strokeWidth=1;fillColor=none;align=left;verticalAlign=middle;spacingTop=-1;spacingLeft=3;spacingRight=3;rotatable=0;labelPosition=right;points=[];portConstraint=eastwest;strokeColor=inherit;" parent="L-X6BHngRJ-MXSbDgt_t-15" vertex="1">
          <mxGeometry y="100" width="270" height="8" as="geometry" />
        </mxCell>
        <mxCell id="L-X6BHngRJ-MXSbDgt_t-18" value="&lt;span class=&quot;selected&quot;&gt;+ handleLogin(email: String, password: String)&lt;/span&gt;" style="text;strokeColor=none;fillColor=none;align=left;verticalAlign=top;spacingLeft=4;spacingRight=4;overflow=hidden;rotatable=0;points=[[0,0.5],[1,0.5]];portConstraint=eastwest;whiteSpace=wrap;html=1;" parent="L-X6BHngRJ-MXSbDgt_t-15" vertex="1">
          <mxGeometry y="108" width="270" height="26" as="geometry" />
        </mxCell>
        <mxCell id="L-X6BHngRJ-MXSbDgt_t-22" value="&lt;span class=&quot;selected&quot;&gt;+ handleSignUp(email: String, password: String)&lt;/span&gt;" style="text;strokeColor=none;fillColor=none;align=left;verticalAlign=top;spacingLeft=4;spacingRight=4;overflow=hidden;rotatable=0;points=[[0,0.5],[1,0.5]];portConstraint=eastwest;whiteSpace=wrap;html=1;" parent="L-X6BHngRJ-MXSbDgt_t-15" vertex="1">
          <mxGeometry y="134" width="270" height="26" as="geometry" />
        </mxCell>
        <mxCell id="L-X6BHngRJ-MXSbDgt_t-23" value="+ resetPassword(email: String)" style="text;strokeColor=none;fillColor=none;align=left;verticalAlign=top;spacingLeft=4;spacingRight=4;overflow=hidden;rotatable=0;points=[[0,0.5],[1,0.5]];portConstraint=eastwest;whiteSpace=wrap;html=1;" parent="L-X6BHngRJ-MXSbDgt_t-15" vertex="1">
          <mxGeometry y="160" width="270" height="30" as="geometry" />
        </mxCell>
        <mxCell id="L-X6BHngRJ-MXSbDgt_t-24" value="Mapcontroller" style="swimlane;fontStyle=1;align=center;verticalAlign=top;childLayout=stackLayout;horizontal=1;startSize=26;horizontalStack=0;resizeParent=1;resizeParentMax=0;resizeLast=0;collapsible=1;marginBottom=0;whiteSpace=wrap;html=1;" parent="1" vertex="1">
          <mxGeometry x="290" y="290" width="230" height="190" as="geometry">
            <mxRectangle x="290" y="290" width="110" height="30" as="alternateBounds" />
          </mxGeometry>
        </mxCell>
        <mxCell id="L-X6BHngRJ-MXSbDgt_t-25" value="- mapView: MapView" style="text;strokeColor=none;fillColor=none;align=left;verticalAlign=top;spacingLeft=4;spacingRight=4;overflow=hidden;rotatable=0;points=[[0,0.5],[1,0.5]];portConstraint=eastwest;whiteSpace=wrap;html=1;" parent="L-X6BHngRJ-MXSbDgt_t-24" vertex="1">
          <mxGeometry y="26" width="230" height="26" as="geometry" />
        </mxCell>
        <mxCell id="L-X6BHngRJ-MXSbDgt_t-28" value="&lt;span class=&quot;selected&quot;&gt;- model: Model&lt;/span&gt;" style="text;strokeColor=none;fillColor=none;align=left;verticalAlign=top;spacingLeft=4;spacingRight=4;overflow=hidden;rotatable=0;points=[[0,0.5],[1,0.5]];portConstraint=eastwest;whiteSpace=wrap;html=1;" parent="L-X6BHngRJ-MXSbDgt_t-24" vertex="1">
          <mxGeometry y="52" width="230" height="26" as="geometry" />
        </mxCell>
        <mxCell id="L-X6BHngRJ-MXSbDgt_t-29" value="&lt;span class=&quot;selected&quot;&gt;- openStreetMaps: OpenStreetMaps&lt;/span&gt;" style="text;strokeColor=none;fillColor=none;align=left;verticalAlign=top;spacingLeft=4;spacingRight=4;overflow=hidden;rotatable=0;points=[[0,0.5],[1,0.5]];portConstraint=eastwest;whiteSpace=wrap;html=1;" parent="L-X6BHngRJ-MXSbDgt_t-24" vertex="1">
          <mxGeometry y="78" width="230" height="26" as="geometry" />
        </mxCell>
        <mxCell id="L-X6BHngRJ-MXSbDgt_t-26" value="" style="line;strokeWidth=1;fillColor=none;align=left;verticalAlign=middle;spacingTop=-1;spacingLeft=3;spacingRight=3;rotatable=0;labelPosition=right;points=[];portConstraint=eastwest;strokeColor=inherit;" parent="L-X6BHngRJ-MXSbDgt_t-24" vertex="1">
          <mxGeometry y="104" width="230" height="8" as="geometry" />
        </mxCell>
        <mxCell id="L-X6BHngRJ-MXSbDgt_t-27" value="&lt;span class=&quot;selected&quot;&gt;+ loadMap(location: Coordinates)&lt;/span&gt;" style="text;strokeColor=none;fillColor=none;align=left;verticalAlign=top;spacingLeft=4;spacingRight=4;overflow=hidden;rotatable=0;points=[[0,0.5],[1,0.5]];portConstraint=eastwest;whiteSpace=wrap;html=1;" parent="L-X6BHngRJ-MXSbDgt_t-24" vertex="1">
          <mxGeometry y="112" width="230" height="26" as="geometry" />
        </mxCell>
        <mxCell id="L-X6BHngRJ-MXSbDgt_t-30" value="&lt;span class=&quot;selected&quot;&gt;+ findNearbyRooms(query: String)&lt;/span&gt;" style="text;strokeColor=none;fillColor=none;align=left;verticalAlign=top;spacingLeft=4;spacingRight=4;overflow=hidden;rotatable=0;points=[[0,0.5],[1,0.5]];portConstraint=eastwest;whiteSpace=wrap;html=1;" parent="L-X6BHngRJ-MXSbDgt_t-24" vertex="1">
          <mxGeometry y="138" width="230" height="26" as="geometry" />
        </mxCell>
        <mxCell id="L-X6BHngRJ-MXSbDgt_t-31" value="&lt;span class=&quot;selected&quot;&gt;+ updateLocation()&lt;/span&gt;" style="text;strokeColor=none;fillColor=none;align=left;verticalAlign=top;spacingLeft=4;spacingRight=4;overflow=hidden;rotatable=0;points=[[0,0.5],[1,0.5]];portConstraint=eastwest;whiteSpace=wrap;html=1;" parent="L-X6BHngRJ-MXSbDgt_t-24" vertex="1">
          <mxGeometry y="164" width="230" height="26" as="geometry" />
        </mxCell>
        <mxCell id="L-X6BHngRJ-MXSbDgt_t-42" value="ChatController" style="swimlane;fontStyle=1;align=center;verticalAlign=top;childLayout=stackLayout;horizontal=1;startSize=26;horizontalStack=0;resizeParent=1;resizeParentMax=0;resizeLast=0;collapsible=1;marginBottom=0;whiteSpace=wrap;html=1;" parent="1" vertex="1">
          <mxGeometry x="455" y="540" width="280" height="180" as="geometry">
            <mxRectangle x="570" y="560" width="120" height="30" as="alternateBounds" />
          </mxGeometry>
        </mxCell>
        <mxCell id="L-X6BHngRJ-MXSbDgt_t-43" value="&lt;span class=&quot;selected&quot;&gt;- chatView: ChatView&lt;/span&gt;" style="text;strokeColor=none;fillColor=none;align=left;verticalAlign=top;spacingLeft=4;spacingRight=4;overflow=hidden;rotatable=0;points=[[0,0.5],[1,0.5]];portConstraint=eastwest;whiteSpace=wrap;html=1;" parent="L-X6BHngRJ-MXSbDgt_t-42" vertex="1">
          <mxGeometry y="26" width="280" height="26" as="geometry" />
        </mxCell>
        <mxCell id="L-X6BHngRJ-MXSbDgt_t-46" value="&lt;span class=&quot;selected&quot;&gt;- model: Model&lt;/span&gt;" style="text;strokeColor=none;fillColor=none;align=left;verticalAlign=top;spacingLeft=4;spacingRight=4;overflow=hidden;rotatable=0;points=[[0,0.5],[1,0.5]];portConstraint=eastwest;whiteSpace=wrap;html=1;" parent="L-X6BHngRJ-MXSbDgt_t-42" vertex="1">
          <mxGeometry y="52" width="280" height="26" as="geometry" />
        </mxCell>
        <mxCell id="L-X6BHngRJ-MXSbDgt_t-44" value="" style="line;strokeWidth=1;fillColor=none;align=left;verticalAlign=middle;spacingTop=-1;spacingLeft=3;spacingRight=3;rotatable=0;labelPosition=right;points=[];portConstraint=eastwest;strokeColor=inherit;" parent="L-X6BHngRJ-MXSbDgt_t-42" vertex="1">
          <mxGeometry y="78" width="280" height="8" as="geometry" />
        </mxCell>
        <mxCell id="L-X6BHngRJ-MXSbDgt_t-45" value="&lt;span class=&quot;selected&quot;&gt;+ sendMessage(message: String, roomId: String)&lt;/span&gt;" style="text;strokeColor=none;fillColor=none;align=left;verticalAlign=top;spacingLeft=4;spacingRight=4;overflow=hidden;rotatable=0;points=[[0,0.5],[1,0.5]];portConstraint=eastwest;whiteSpace=wrap;html=1;" parent="L-X6BHngRJ-MXSbDgt_t-42" vertex="1">
          <mxGeometry y="86" width="280" height="26" as="geometry" />
        </mxCell>
        <mxCell id="L-X6BHngRJ-MXSbDgt_t-47" value="&lt;span class=&quot;selected&quot;&gt;+ retrieveChatHistory(roomId: String)&lt;/span&gt;" style="text;strokeColor=none;fillColor=none;align=left;verticalAlign=top;spacingLeft=4;spacingRight=4;overflow=hidden;rotatable=0;points=[[0,0.5],[1,0.5]];portConstraint=eastwest;whiteSpace=wrap;html=1;" parent="L-X6BHngRJ-MXSbDgt_t-42" vertex="1">
          <mxGeometry y="112" width="280" height="26" as="geometry" />
        </mxCell>
        <mxCell id="L-X6BHngRJ-MXSbDgt_t-48" value="&lt;span class=&quot;selected&quot;&gt;+ subscribeToNewMessages(roomId: String)&lt;/span&gt;" style="text;strokeColor=none;fillColor=none;align=left;verticalAlign=top;spacingLeft=4;spacingRight=4;overflow=hidden;rotatable=0;points=[[0,0.5],[1,0.5]];portConstraint=eastwest;whiteSpace=wrap;html=1;" parent="L-X6BHngRJ-MXSbDgt_t-42" vertex="1">
          <mxGeometry y="138" width="280" height="42" as="geometry" />
        </mxCell>
        <mxCell id="L-X6BHngRJ-MXSbDgt_t-49" value="RoomManageController" style="swimlane;fontStyle=1;align=center;verticalAlign=top;childLayout=stackLayout;horizontal=1;startSize=26;horizontalStack=0;resizeParent=1;resizeParentMax=0;resizeLast=0;collapsible=1;marginBottom=0;whiteSpace=wrap;html=1;" parent="1" vertex="1">
          <mxGeometry x="455" y="780" width="250" height="164" as="geometry">
            <mxRectangle x="300" y="620" width="170" height="30" as="alternateBounds" />
          </mxGeometry>
        </mxCell>
        <mxCell id="L-X6BHngRJ-MXSbDgt_t-50" value="- roomManageView: RoomManageView" style="text;strokeColor=none;fillColor=none;align=left;verticalAlign=top;spacingLeft=4;spacingRight=4;overflow=hidden;rotatable=0;points=[[0,0.5],[1,0.5]];portConstraint=eastwest;whiteSpace=wrap;html=1;" parent="L-X6BHngRJ-MXSbDgt_t-49" vertex="1">
          <mxGeometry y="26" width="250" height="26" as="geometry" />
        </mxCell>
        <mxCell id="L-X6BHngRJ-MXSbDgt_t-53" value="&lt;span class=&quot;selected&quot;&gt;- model: Model&lt;/span&gt;" style="text;strokeColor=none;fillColor=none;align=left;verticalAlign=top;spacingLeft=4;spacingRight=4;overflow=hidden;rotatable=0;points=[[0,0.5],[1,0.5]];portConstraint=eastwest;whiteSpace=wrap;html=1;" parent="L-X6BHngRJ-MXSbDgt_t-49" vertex="1">
          <mxGeometry y="52" width="250" height="26" as="geometry" />
        </mxCell>
        <mxCell id="L-X6BHngRJ-MXSbDgt_t-51" value="" style="line;strokeWidth=1;fillColor=none;align=left;verticalAlign=middle;spacingTop=-1;spacingLeft=3;spacingRight=3;rotatable=0;labelPosition=right;points=[];portConstraint=eastwest;strokeColor=inherit;" parent="L-X6BHngRJ-MXSbDgt_t-49" vertex="1">
          <mxGeometry y="78" width="250" height="8" as="geometry" />
        </mxCell>
        <mxCell id="L-X6BHngRJ-MXSbDgt_t-52" value="&lt;span class=&quot;selected&quot;&gt;+ createRoom(roomName: String)&lt;/span&gt;" style="text;strokeColor=none;fillColor=none;align=left;verticalAlign=top;spacingLeft=4;spacingRight=4;overflow=hidden;rotatable=0;points=[[0,0.5],[1,0.5]];portConstraint=eastwest;whiteSpace=wrap;html=1;" parent="L-X6BHngRJ-MXSbDgt_t-49" vertex="1">
          <mxGeometry y="86" width="250" height="26" as="geometry" />
        </mxCell>
        <mxCell id="L-X6BHngRJ-MXSbDgt_t-54" value="&lt;span class=&quot;selected&quot;&gt;+ joinRoom(roomId: String)&lt;/span&gt;" style="text;strokeColor=none;fillColor=none;align=left;verticalAlign=top;spacingLeft=4;spacingRight=4;overflow=hidden;rotatable=0;points=[[0,0.5],[1,0.5]];portConstraint=eastwest;whiteSpace=wrap;html=1;" parent="L-X6BHngRJ-MXSbDgt_t-49" vertex="1">
          <mxGeometry y="112" width="250" height="26" as="geometry" />
        </mxCell>
        <mxCell id="L-X6BHngRJ-MXSbDgt_t-55" value="&lt;span class=&quot;selected&quot;&gt;+ leaveRoom(roomId: String)&lt;/span&gt;" style="text;strokeColor=none;fillColor=none;align=left;verticalAlign=top;spacingLeft=4;spacingRight=4;overflow=hidden;rotatable=0;points=[[0,0.5],[1,0.5]];portConstraint=eastwest;whiteSpace=wrap;html=1;" parent="L-X6BHngRJ-MXSbDgt_t-49" vertex="1">
          <mxGeometry y="138" width="250" height="26" as="geometry" />
        </mxCell>
        <mxCell id="L-X6BHngRJ-MXSbDgt_t-59" value="&lt;i&gt;&amp;lt;&amp;lt;Interface&amp;gt;&amp;gt;&lt;/i&gt;&lt;div&gt;ProfileView&lt;/div&gt;" style="swimlane;fontStyle=0;childLayout=stackLayout;horizontal=1;startSize=26;fillColor=none;horizontalStack=0;resizeParent=1;resizeParentMax=0;resizeLast=0;collapsible=1;marginBottom=0;whiteSpace=wrap;html=1;" parent="1" vertex="1">
          <mxGeometry x="10" y="10" width="210" height="130" as="geometry">
            <mxRectangle x="20" y="40" width="120" height="40" as="alternateBounds" />
          </mxGeometry>
        </mxCell>
        <mxCell id="L-X6BHngRJ-MXSbDgt_t-60" value="&lt;span class=&quot;selected&quot;&gt;+ displayProfile(profileData: Map)&lt;/span&gt;" style="text;strokeColor=none;fillColor=none;align=left;verticalAlign=top;spacingLeft=4;spacingRight=4;overflow=hidden;rotatable=0;points=[[0,0.5],[1,0.5]];portConstraint=eastwest;whiteSpace=wrap;html=1;" parent="L-X6BHngRJ-MXSbDgt_t-59" vertex="1">
          <mxGeometry y="26" width="210" height="22" as="geometry" />
        </mxCell>
        <mxCell id="L-X6BHngRJ-MXSbDgt_t-61" value="&lt;span class=&quot;selected&quot;&gt;+ showLogoutConfirmation()&lt;/span&gt;" style="text;strokeColor=none;fillColor=none;align=left;verticalAlign=top;spacingLeft=4;spacingRight=4;overflow=hidden;rotatable=0;points=[[0,0.5],[1,0.5]];portConstraint=eastwest;whiteSpace=wrap;html=1;" parent="L-X6BHngRJ-MXSbDgt_t-59" vertex="1">
          <mxGeometry y="48" width="210" height="26" as="geometry" />
        </mxCell>
        <mxCell id="L-X6BHngRJ-MXSbDgt_t-62" value="&lt;span class=&quot;selected&quot;&gt;+ showMessage(message: String)&lt;/span&gt;" style="text;strokeColor=none;fillColor=none;align=left;verticalAlign=top;spacingLeft=4;spacingRight=4;overflow=hidden;rotatable=0;points=[[0,0.5],[1,0.5]];portConstraint=eastwest;whiteSpace=wrap;html=1;" parent="L-X6BHngRJ-MXSbDgt_t-59" vertex="1">
          <mxGeometry y="74" width="210" height="56" as="geometry" />
        </mxCell>
        <mxCell id="L-X6BHngRJ-MXSbDgt_t-63" value="&lt;i&gt;&amp;lt;&amp;lt;Interface&amp;gt;&amp;gt;&lt;/i&gt;&lt;div&gt;&lt;i&gt;AccountView&lt;/i&gt;&lt;/div&gt;" style="swimlane;fontStyle=0;childLayout=stackLayout;horizontal=1;startSize=26;fillColor=none;horizontalStack=0;resizeParent=1;resizeParentMax=0;resizeLast=0;collapsible=1;marginBottom=0;whiteSpace=wrap;html=1;" parent="1" vertex="1">
          <mxGeometry x="-30" y="170" width="210" height="130" as="geometry">
            <mxRectangle x="20" y="220" width="120" height="40" as="alternateBounds" />
          </mxGeometry>
        </mxCell>
        <mxCell id="L-X6BHngRJ-MXSbDgt_t-64" value="+ displayLoginScreen()" style="text;strokeColor=none;fillColor=none;align=left;verticalAlign=top;spacingLeft=4;spacingRight=4;overflow=hidden;rotatable=0;points=[[0,0.5],[1,0.5]];portConstraint=eastwest;whiteSpace=wrap;html=1;" parent="L-X6BHngRJ-MXSbDgt_t-63" vertex="1">
          <mxGeometry y="26" width="210" height="22" as="geometry" />
        </mxCell>
        <mxCell id="L-X6BHngRJ-MXSbDgt_t-65" value="&lt;span class=&quot;selected&quot;&gt;+ displaySignUpScreen()&lt;/span&gt;" style="text;strokeColor=none;fillColor=none;align=left;verticalAlign=top;spacingLeft=4;spacingRight=4;overflow=hidden;rotatable=0;points=[[0,0.5],[1,0.5]];portConstraint=eastwest;whiteSpace=wrap;html=1;" parent="L-X6BHngRJ-MXSbDgt_t-63" vertex="1">
          <mxGeometry y="48" width="210" height="26" as="geometry" />
        </mxCell>
        <mxCell id="L-X6BHngRJ-MXSbDgt_t-66" value="&lt;span class=&quot;selected&quot;&gt;+ showLoginError(message: String)&lt;/span&gt;" style="text;strokeColor=none;fillColor=none;align=left;verticalAlign=top;spacingLeft=4;spacingRight=4;overflow=hidden;rotatable=0;points=[[0,0.5],[1,0.5]];portConstraint=eastwest;whiteSpace=wrap;html=1;" parent="L-X6BHngRJ-MXSbDgt_t-63" vertex="1">
          <mxGeometry y="74" width="210" height="56" as="geometry" />
        </mxCell>
        <mxCell id="L-X6BHngRJ-MXSbDgt_t-67" value="&lt;i&gt;&amp;lt;&amp;lt;Interface&amp;gt;&amp;gt;&lt;/i&gt;&lt;div&gt;&lt;i&gt;MapView&lt;/i&gt;&lt;/div&gt;" style="swimlane;fontStyle=0;childLayout=stackLayout;horizontal=1;startSize=26;fillColor=none;horizontalStack=0;resizeParent=1;resizeParentMax=0;resizeLast=0;collapsible=1;marginBottom=0;whiteSpace=wrap;html=1;" parent="1" vertex="1">
          <mxGeometry x="-80" y="360" width="270" height="100" as="geometry">
            <mxRectangle x="20" y="385" width="120" height="40" as="alternateBounds" />
          </mxGeometry>
        </mxCell>
        <mxCell id="L-X6BHngRJ-MXSbDgt_t-69" value="&lt;span class=&quot;selected&quot;&gt;+ renderMap(mapData: Map)&lt;/span&gt;" style="text;strokeColor=none;fillColor=none;align=left;verticalAlign=top;spacingLeft=4;spacingRight=4;overflow=hidden;rotatable=0;points=[[0,0.5],[1,0.5]];portConstraint=eastwest;whiteSpace=wrap;html=1;" parent="L-X6BHngRJ-MXSbDgt_t-67" vertex="1">
          <mxGeometry y="26" width="270" height="26" as="geometry" />
        </mxCell>
        <mxCell id="L-X6BHngRJ-MXSbDgt_t-70" value="&lt;span class=&quot;selected&quot;&gt;+ showNearbyMarkers(markers: List)&lt;/span&gt;" style="text;strokeColor=none;fillColor=none;align=left;verticalAlign=top;spacingLeft=4;spacingRight=4;overflow=hidden;rotatable=0;points=[[0,0.5],[1,0.5]];portConstraint=eastwest;whiteSpace=wrap;html=1;" parent="L-X6BHngRJ-MXSbDgt_t-67" vertex="1">
          <mxGeometry y="52" width="270" height="28" as="geometry" />
        </mxCell>
        <mxCell id="L-X6BHngRJ-MXSbDgt_t-71" value="&lt;span class=&quot;selected&quot;&gt;+ updateLocationIndicator(location: Coordinates)&lt;/span&gt;" style="text;strokeColor=none;fillColor=none;align=left;verticalAlign=top;spacingLeft=4;spacingRight=4;overflow=hidden;rotatable=0;points=[[0,0.5],[1,0.5]];portConstraint=eastwest;whiteSpace=wrap;html=1;" parent="L-X6BHngRJ-MXSbDgt_t-67" vertex="1">
          <mxGeometry y="80" width="270" height="20" as="geometry" />
        </mxCell>
        <mxCell id="L-X6BHngRJ-MXSbDgt_t-72" value="&lt;i&gt;&amp;lt;&amp;lt;Interface&amp;gt;&amp;gt;&lt;/i&gt;&lt;div&gt;&lt;i&gt;ChatView&lt;/i&gt;&lt;/div&gt;" style="swimlane;fontStyle=0;childLayout=stackLayout;horizontal=1;startSize=26;fillColor=none;horizontalStack=0;resizeParent=1;resizeParentMax=0;resizeLast=0;collapsible=1;marginBottom=0;whiteSpace=wrap;html=1;" parent="1" vertex="1">
          <mxGeometry x="-80" y="580" width="270" height="100" as="geometry">
            <mxRectangle y="560" width="120" height="40" as="alternateBounds" />
          </mxGeometry>
        </mxCell>
        <mxCell id="L-X6BHngRJ-MXSbDgt_t-73" value="&lt;span class=&quot;selected&quot;&gt;+ displayMessage(message: String)&lt;/span&gt;" style="text;strokeColor=none;fillColor=none;align=left;verticalAlign=top;spacingLeft=4;spacingRight=4;overflow=hidden;rotatable=0;points=[[0,0.5],[1,0.5]];portConstraint=eastwest;whiteSpace=wrap;html=1;" parent="L-X6BHngRJ-MXSbDgt_t-72" vertex="1">
          <mxGeometry y="26" width="270" height="26" as="geometry" />
        </mxCell>
        <mxCell id="L-X6BHngRJ-MXSbDgt_t-74" value="&lt;span class=&quot;selected&quot;&gt;+ displayChatHistory(messages: List)&lt;/span&gt;" style="text;strokeColor=none;fillColor=none;align=left;verticalAlign=top;spacingLeft=4;spacingRight=4;overflow=hidden;rotatable=0;points=[[0,0.5],[1,0.5]];portConstraint=eastwest;whiteSpace=wrap;html=1;" parent="L-X6BHngRJ-MXSbDgt_t-72" vertex="1">
          <mxGeometry y="52" width="270" height="28" as="geometry" />
        </mxCell>
        <mxCell id="L-X6BHngRJ-MXSbDgt_t-75" value="&lt;span class=&quot;selected&quot;&gt;+ showTypingIndicator()&lt;/span&gt;" style="text;strokeColor=none;fillColor=none;align=left;verticalAlign=top;spacingLeft=4;spacingRight=4;overflow=hidden;rotatable=0;points=[[0,0.5],[1,0.5]];portConstraint=eastwest;whiteSpace=wrap;html=1;" parent="L-X6BHngRJ-MXSbDgt_t-72" vertex="1">
          <mxGeometry y="80" width="270" height="20" as="geometry" />
        </mxCell>
        <mxCell id="L-X6BHngRJ-MXSbDgt_t-76" value="&lt;i&gt;&amp;lt;&amp;lt;Interface&amp;gt;&amp;gt;&lt;/i&gt;&lt;div&gt;&lt;i&gt;RoomManageView&lt;/i&gt;&lt;/div&gt;" style="swimlane;fontStyle=0;childLayout=stackLayout;horizontal=1;startSize=26;fillColor=none;horizontalStack=0;resizeParent=1;resizeParentMax=0;resizeLast=0;collapsible=1;marginBottom=0;whiteSpace=wrap;html=1;" parent="1" vertex="1">
          <mxGeometry x="-20" y="812" width="270" height="100" as="geometry">
            <mxRectangle x="10" y="680" width="120" height="40" as="alternateBounds" />
          </mxGeometry>
        </mxCell>
        <mxCell id="L-X6BHngRJ-MXSbDgt_t-77" value="&lt;span class=&quot;selected&quot;&gt;+ displayRooms(rooms: List)&lt;/span&gt;" style="text;strokeColor=none;fillColor=none;align=left;verticalAlign=top;spacingLeft=4;spacingRight=4;overflow=hidden;rotatable=0;points=[[0,0.5],[1,0.5]];portConstraint=eastwest;whiteSpace=wrap;html=1;" parent="L-X6BHngRJ-MXSbDgt_t-76" vertex="1">
          <mxGeometry y="26" width="270" height="26" as="geometry" />
        </mxCell>
        <mxCell id="L-X6BHngRJ-MXSbDgt_t-78" value="&lt;span class=&quot;selected&quot;&gt;+ showRoomCreationForm()&lt;/span&gt;" style="text;strokeColor=none;fillColor=none;align=left;verticalAlign=top;spacingLeft=4;spacingRight=4;overflow=hidden;rotatable=0;points=[[0,0.5],[1,0.5]];portConstraint=eastwest;whiteSpace=wrap;html=1;" parent="L-X6BHngRJ-MXSbDgt_t-76" vertex="1">
          <mxGeometry y="52" width="270" height="28" as="geometry" />
        </mxCell>
        <mxCell id="L-X6BHngRJ-MXSbDgt_t-79" value="&lt;span class=&quot;selected&quot;&gt;+ showConfirmationMessage(message: String)&lt;/span&gt;" style="text;strokeColor=none;fillColor=none;align=left;verticalAlign=top;spacingLeft=4;spacingRight=4;overflow=hidden;rotatable=0;points=[[0,0.5],[1,0.5]];portConstraint=eastwest;whiteSpace=wrap;html=1;" parent="L-X6BHngRJ-MXSbDgt_t-76" vertex="1">
          <mxGeometry y="80" width="270" height="20" as="geometry" />
        </mxCell>
        <mxCell id="L-X6BHngRJ-MXSbDgt_t-80" value="&lt;i&gt;&amp;lt;&amp;lt;Interface&amp;gt;&amp;gt;&lt;/i&gt;&lt;div&gt;Model&lt;/div&gt;" style="swimlane;fontStyle=0;childLayout=stackLayout;horizontal=1;startSize=26;fillColor=none;horizontalStack=0;resizeParent=1;resizeParentMax=0;resizeLast=0;collapsible=1;marginBottom=0;whiteSpace=wrap;html=1;" parent="1" vertex="1">
          <mxGeometry x="920" y="450" width="270" height="140" as="geometry">
            <mxRectangle x="900" y="420" width="120" height="40" as="alternateBounds" />
          </mxGeometry>
        </mxCell>
        <mxCell id="L-X6BHngRJ-MXSbDgt_t-81" value="&lt;span class=&quot;selected&quot;&gt;+ getUserData(userId: String)&lt;/span&gt;" style="text;strokeColor=none;fillColor=none;align=left;verticalAlign=top;spacingLeft=4;spacingRight=4;overflow=hidden;rotatable=0;points=[[0,0.5],[1,0.5]];portConstraint=eastwest;whiteSpace=wrap;html=1;" parent="L-X6BHngRJ-MXSbDgt_t-80" vertex="1">
          <mxGeometry y="26" width="270" height="26" as="geometry" />
        </mxCell>
        <mxCell id="L-X6BHngRJ-MXSbDgt_t-82" value="&lt;span class=&quot;selected&quot;&gt;+ saveUserData(userData: Map)&lt;/span&gt;" style="text;strokeColor=none;fillColor=none;align=left;verticalAlign=top;spacingLeft=4;spacingRight=4;overflow=hidden;rotatable=0;points=[[0,0.5],[1,0.5]];portConstraint=eastwest;whiteSpace=wrap;html=1;" parent="L-X6BHngRJ-MXSbDgt_t-80" vertex="1">
          <mxGeometry y="52" width="270" height="28" as="geometry" />
        </mxCell>
        <mxCell id="L-X6BHngRJ-MXSbDgt_t-83" value="&lt;span class=&quot;selected&quot;&gt;+ getChatHistory(roomId: String)&lt;/span&gt;" style="text;strokeColor=none;fillColor=none;align=left;verticalAlign=top;spacingLeft=4;spacingRight=4;overflow=hidden;rotatable=0;points=[[0,0.5],[1,0.5]];portConstraint=eastwest;whiteSpace=wrap;html=1;" parent="L-X6BHngRJ-MXSbDgt_t-80" vertex="1">
          <mxGeometry y="80" width="270" height="20" as="geometry" />
        </mxCell>
        <mxCell id="L-X6BHngRJ-MXSbDgt_t-84" value="&lt;span class=&quot;selected&quot;&gt;+ getRooms()&lt;/span&gt;" style="text;strokeColor=none;fillColor=none;align=left;verticalAlign=top;spacingLeft=4;spacingRight=4;overflow=hidden;rotatable=0;points=[[0,0.5],[1,0.5]];portConstraint=eastwest;whiteSpace=wrap;html=1;" parent="L-X6BHngRJ-MXSbDgt_t-80" vertex="1">
          <mxGeometry y="100" width="270" height="20" as="geometry" />
        </mxCell>
        <mxCell id="L-X6BHngRJ-MXSbDgt_t-85" value="&lt;span class=&quot;selected&quot;&gt;+ updateRoom(roomData: Map)&lt;/span&gt;" style="text;strokeColor=none;fillColor=none;align=left;verticalAlign=top;spacingLeft=4;spacingRight=4;overflow=hidden;rotatable=0;points=[[0,0.5],[1,0.5]];portConstraint=eastwest;whiteSpace=wrap;html=1;" parent="L-X6BHngRJ-MXSbDgt_t-80" vertex="1">
          <mxGeometry y="120" width="270" height="20" as="geometry" />
        </mxCell>
        <mxCell id="L-X6BHngRJ-MXSbDgt_t-86" value="&lt;i&gt;&amp;lt;&amp;lt;Interface&amp;gt;&amp;gt;&lt;/i&gt;&lt;div&gt;FirebaseAuthentication&lt;/div&gt;" style="swimlane;fontStyle=0;childLayout=stackLayout;horizontal=1;startSize=26;fillColor=none;horizontalStack=0;resizeParent=1;resizeParentMax=0;resizeLast=0;collapsible=1;marginBottom=0;whiteSpace=wrap;html=1;" parent="1" vertex="1">
          <mxGeometry x="1200" y="-100" width="280" height="100" as="geometry">
            <mxRectangle x="1170" y="-80" width="120" height="40" as="alternateBounds" />
          </mxGeometry>
        </mxCell>
        <mxCell id="L-X6BHngRJ-MXSbDgt_t-87" value="&lt;span class=&quot;selected&quot;&gt;+ signInWithEmail(email: String, password: String)&lt;/span&gt;" style="text;strokeColor=none;fillColor=none;align=left;verticalAlign=top;spacingLeft=4;spacingRight=4;overflow=hidden;rotatable=0;points=[[0,0.5],[1,0.5]];portConstraint=eastwest;whiteSpace=wrap;html=1;" parent="L-X6BHngRJ-MXSbDgt_t-86" vertex="1">
          <mxGeometry y="26" width="280" height="26" as="geometry" />
        </mxCell>
        <mxCell id="L-X6BHngRJ-MXSbDgt_t-88" value="&lt;span class=&quot;selected&quot;&gt;+ signOut()&lt;/span&gt;" style="text;strokeColor=none;fillColor=none;align=left;verticalAlign=top;spacingLeft=4;spacingRight=4;overflow=hidden;rotatable=0;points=[[0,0.5],[1,0.5]];portConstraint=eastwest;whiteSpace=wrap;html=1;" parent="L-X6BHngRJ-MXSbDgt_t-86" vertex="1">
          <mxGeometry y="52" width="280" height="28" as="geometry" />
        </mxCell>
        <mxCell id="L-X6BHngRJ-MXSbDgt_t-89" value="&lt;span class=&quot;selected&quot;&gt;+ resetPassword(email: String)&lt;/span&gt;" style="text;strokeColor=none;fillColor=none;align=left;verticalAlign=top;spacingLeft=4;spacingRight=4;overflow=hidden;rotatable=0;points=[[0,0.5],[1,0.5]];portConstraint=eastwest;whiteSpace=wrap;html=1;" parent="L-X6BHngRJ-MXSbDgt_t-86" vertex="1">
          <mxGeometry y="80" width="280" height="20" as="geometry" />
        </mxCell>
        <mxCell id="L-X6BHngRJ-MXSbDgt_t-92" value="&lt;i&gt;&amp;lt;&amp;lt;Interface&amp;gt;&amp;gt;&lt;/i&gt;&lt;div&gt;OpenStreetMaps&lt;/div&gt;" style="swimlane;fontStyle=0;childLayout=stackLayout;horizontal=1;startSize=26;fillColor=none;horizontalStack=0;resizeParent=1;resizeParentMax=0;resizeLast=0;collapsible=1;marginBottom=0;whiteSpace=wrap;html=1;" parent="1" vertex="1">
          <mxGeometry x="630" y="310" width="280" height="100" as="geometry">
            <mxRectangle x="630" y="310" width="120" height="40" as="alternateBounds" />
          </mxGeometry>
        </mxCell>
        <mxCell id="L-X6BHngRJ-MXSbDgt_t-93" value="&lt;span class=&quot;selected&quot;&gt;+ renderMap(options: Map)&lt;/span&gt;" style="text;strokeColor=none;fillColor=none;align=left;verticalAlign=top;spacingLeft=4;spacingRight=4;overflow=hidden;rotatable=0;points=[[0,0.5],[1,0.5]];portConstraint=eastwest;whiteSpace=wrap;html=1;" parent="L-X6BHngRJ-MXSbDgt_t-92" vertex="1">
          <mxGeometry y="26" width="280" height="26" as="geometry" />
        </mxCell>
        <mxCell id="L-X6BHngRJ-MXSbDgt_t-94" value="&lt;span class=&quot;selected&quot;&gt;+ getCoordinatesForAddress(address: String)&lt;/span&gt;" style="text;strokeColor=none;fillColor=none;align=left;verticalAlign=top;spacingLeft=4;spacingRight=4;overflow=hidden;rotatable=0;points=[[0,0.5],[1,0.5]];portConstraint=eastwest;whiteSpace=wrap;html=1;" parent="L-X6BHngRJ-MXSbDgt_t-92" vertex="1">
          <mxGeometry y="52" width="280" height="28" as="geometry" />
        </mxCell>
        <mxCell id="L-X6BHngRJ-MXSbDgt_t-95" value="&lt;span class=&quot;selected&quot;&gt;+ findNearby(query: String, location: Coordinates)&lt;/span&gt;" style="text;strokeColor=none;fillColor=none;align=left;verticalAlign=top;spacingLeft=4;spacingRight=4;overflow=hidden;rotatable=0;points=[[0,0.5],[1,0.5]];portConstraint=eastwest;whiteSpace=wrap;html=1;" parent="L-X6BHngRJ-MXSbDgt_t-92" vertex="1">
          <mxGeometry y="80" width="280" height="20" as="geometry" />
        </mxCell>
        <mxCell id="_Mt79U1lWhqighqn42hL-3" value="1" style="text;html=1;align=center;verticalAlign=middle;resizable=0;points=[];autosize=1;strokeColor=none;fillColor=none;" vertex="1" parent="1">
          <mxGeometry x="610" y="90" width="30" height="30" as="geometry" />
        </mxCell>
        <mxCell id="_Mt79U1lWhqighqn42hL-4" value="1" style="text;html=1;align=center;verticalAlign=middle;resizable=0;points=[];autosize=1;strokeColor=none;fillColor=none;" vertex="1" parent="1">
          <mxGeometry x="210" y="80" width="30" height="30" as="geometry" />
        </mxCell>
        <mxCell id="_Mt79U1lWhqighqn42hL-5" value="1" style="text;html=1;align=center;verticalAlign=middle;resizable=0;points=[];autosize=1;strokeColor=none;fillColor=none;" vertex="1" parent="1">
          <mxGeometry x="270" y="80" width="30" height="30" as="geometry" />
        </mxCell>
        <mxCell id="_Mt79U1lWhqighqn42hL-7" value="1" style="text;html=1;align=center;verticalAlign=middle;resizable=0;points=[];autosize=1;strokeColor=none;fillColor=none;" vertex="1" parent="1">
          <mxGeometry x="1020" y="600" width="30" height="30" as="geometry" />
        </mxCell>
        <mxCell id="_Mt79U1lWhqighqn42hL-8" value="*" style="text;html=1;align=center;verticalAlign=middle;resizable=0;points=[];autosize=1;strokeColor=none;fillColor=none;" vertex="1" parent="1">
          <mxGeometry x="735" y="630" width="30" height="30" as="geometry" />
        </mxCell>
        <mxCell id="_Mt79U1lWhqighqn42hL-9" value="1" style="text;html=1;align=center;verticalAlign=middle;resizable=0;points=[];autosize=1;strokeColor=none;fillColor=none;" vertex="1" parent="1">
          <mxGeometry x="1055" y="598" width="30" height="30" as="geometry" />
        </mxCell>
        <mxCell id="_Mt79U1lWhqighqn42hL-10" value="*" style="text;html=1;align=center;verticalAlign=middle;resizable=0;points=[];autosize=1;strokeColor=none;fillColor=none;" vertex="1" parent="1">
          <mxGeometry x="705" y="862" width="30" height="30" as="geometry" />
        </mxCell>
        <mxCell id="_Mt79U1lWhqighqn42hL-11" value="1..*" style="text;html=1;align=center;verticalAlign=middle;resizable=0;points=[];autosize=1;strokeColor=none;fillColor=none;" vertex="1" parent="1">
          <mxGeometry x="510" y="88" width="40" height="30" as="geometry" />
        </mxCell>
        <mxCell id="_Mt79U1lWhqighqn42hL-12" value="1" style="text;html=1;align=center;verticalAlign=middle;resizable=0;points=[];autosize=1;strokeColor=none;fillColor=none;" vertex="1" parent="1">
          <mxGeometry x="1155" y="-62" width="30" height="30" as="geometry" />
        </mxCell>
        <mxCell id="_Mt79U1lWhqighqn42hL-14" value="1" style="text;html=1;align=center;verticalAlign=middle;resizable=0;points=[];autosize=1;strokeColor=none;fillColor=none;" vertex="1" parent="1">
          <mxGeometry x="1200" y="270" width="30" height="30" as="geometry" />
        </mxCell>
        <mxCell id="_Mt79U1lWhqighqn42hL-15" value="1..*" style="text;html=1;align=center;verticalAlign=middle;resizable=0;points=[];autosize=1;strokeColor=none;fillColor=none;" vertex="1" parent="1">
          <mxGeometry x="915" y="70" width="40" height="30" as="geometry" />
        </mxCell>
        <mxCell id="_Mt79U1lWhqighqn42hL-16" value="1" style="text;html=1;align=center;verticalAlign=middle;resizable=0;points=[];autosize=1;strokeColor=none;fillColor=none;" vertex="1" parent="1">
          <mxGeometry x="190" y="390" width="30" height="30" as="geometry" />
        </mxCell>
        <mxCell id="_Mt79U1lWhqighqn42hL-17" value="1" style="text;html=1;align=center;verticalAlign=middle;resizable=0;points=[];autosize=1;strokeColor=none;fillColor=none;" vertex="1" parent="1">
          <mxGeometry x="240" y="390" width="30" height="30" as="geometry" />
        </mxCell>
        <mxCell id="_Mt79U1lWhqighqn42hL-18" value="1" style="text;html=1;align=center;verticalAlign=middle;resizable=0;points=[];autosize=1;strokeColor=none;fillColor=none;" vertex="1" parent="1">
          <mxGeometry x="600" y="360" width="30" height="30" as="geometry" />
        </mxCell>
        <mxCell id="_Mt79U1lWhqighqn42hL-19" value="1..*" style="text;html=1;align=center;verticalAlign=middle;resizable=0;points=[];autosize=1;strokeColor=none;fillColor=none;" vertex="1" parent="1">
          <mxGeometry x="515" y="360" width="40" height="30" as="geometry" />
        </mxCell>
        <mxCell id="_Mt79U1lWhqighqn42hL-20" value="1" style="text;html=1;align=center;verticalAlign=middle;resizable=0;points=[];autosize=1;strokeColor=none;fillColor=none;" vertex="1" parent="1">
          <mxGeometry x="195" y="638" width="30" height="30" as="geometry" />
        </mxCell>
        <mxCell id="_Mt79U1lWhqighqn42hL-21" value="1" style="text;html=1;align=center;verticalAlign=middle;resizable=0;points=[];autosize=1;strokeColor=none;fillColor=none;" vertex="1" parent="1">
          <mxGeometry x="415" y="628" width="30" height="30" as="geometry" />
        </mxCell>
        <mxCell id="_Mt79U1lWhqighqn42hL-22" value="1" style="text;html=1;align=center;verticalAlign=middle;resizable=0;points=[];autosize=1;strokeColor=none;fillColor=none;" vertex="1" parent="1">
          <mxGeometry x="240" y="858" width="30" height="30" as="geometry" />
        </mxCell>
        <mxCell id="_Mt79U1lWhqighqn42hL-23" value="1" style="text;html=1;align=center;verticalAlign=middle;resizable=0;points=[];autosize=1;strokeColor=none;fillColor=none;" vertex="1" parent="1">
          <mxGeometry x="425" y="862" width="30" height="30" as="geometry" />
        </mxCell>
        <mxCell id="_Mt79U1lWhqighqn42hL-24" value="1" style="text;html=1;align=center;verticalAlign=middle;resizable=0;points=[];autosize=1;strokeColor=none;fillColor=none;" vertex="1" parent="1">
          <mxGeometry x="875" y="468" width="30" height="30" as="geometry" />
        </mxCell>
        <mxCell id="_Mt79U1lWhqighqn42hL-26" value="*" style="text;html=1;align=center;verticalAlign=middle;resizable=0;points=[];autosize=1;strokeColor=none;fillColor=none;" vertex="1" parent="1">
          <mxGeometry x="520" y="460" width="30" height="30" as="geometry" />
        </mxCell>
        <mxCell id="_Mt79U1lWhqighqn42hL-29" value="1..*" style="text;html=1;align=center;verticalAlign=middle;resizable=0;points=[];autosize=1;strokeColor=none;fillColor=none;" vertex="1" parent="1">
          <mxGeometry x="780" y="-50" width="40" height="30" as="geometry" />
        </mxCell>
        <mxCell id="_Mt79U1lWhqighqn42hL-33" value="Use" style="endArrow=open;endSize=12;dashed=1;html=1;rounded=0;exitX=0.5;exitY=0;exitDx=0;exitDy=0;" edge="1" parent="1" source="L-X6BHngRJ-MXSbDgt_t-15" target="L-X6BHngRJ-MXSbDgt_t-86">
          <mxGeometry width="160" relative="1" as="geometry">
            <mxPoint x="785" y="-50" as="sourcePoint" />
            <mxPoint x="1010" y="-62" as="targetPoint" />
            <Array as="points">
              <mxPoint x="785" y="-50" />
            </Array>
          </mxGeometry>
        </mxCell>
        <mxCell id="_Mt79U1lWhqighqn42hL-34" value="Use" style="endArrow=open;endSize=12;dashed=1;html=1;rounded=0;" edge="1" parent="1" source="L-X6BHngRJ-MXSbDgt_t-15" target="s6KFAtXswkaMFqpEXBId-33">
          <mxGeometry width="160" relative="1" as="geometry">
            <mxPoint x="940" y="70" as="sourcePoint" />
            <mxPoint x="1220" y="70" as="targetPoint" />
            <Array as="points">
              <mxPoint x="1195" y="75" />
            </Array>
          </mxGeometry>
        </mxCell>
        <mxCell id="_Mt79U1lWhqighqn42hL-35" value="Use" style="endArrow=open;endSize=12;dashed=1;html=1;rounded=0;entryX=0;entryY=0.087;entryDx=0;entryDy=0;entryPerimeter=0;" edge="1" parent="1" target="L-X6BHngRJ-MXSbDgt_t-80">
          <mxGeometry width="160" relative="1" as="geometry">
            <mxPoint x="520" y="458.75" as="sourcePoint" />
            <mxPoint x="680" y="458.75" as="targetPoint" />
          </mxGeometry>
        </mxCell>
        <mxCell id="_Mt79U1lWhqighqn42hL-36" value="Use" style="endArrow=open;endSize=12;dashed=1;html=1;rounded=0;entryX=0.406;entryY=1.094;entryDx=0;entryDy=0;entryPerimeter=0;" edge="1" parent="1" target="L-X6BHngRJ-MXSbDgt_t-85">
          <mxGeometry width="160" relative="1" as="geometry">
            <mxPoint x="735" y="626.75" as="sourcePoint" />
            <mxPoint x="1028" y="590" as="targetPoint" />
            <Array as="points">
              <mxPoint x="1030" y="627" />
            </Array>
          </mxGeometry>
        </mxCell>
        <mxCell id="_Mt79U1lWhqighqn42hL-38" value="Use" style="endArrow=open;endSize=12;dashed=1;html=1;rounded=0;entryX=0.503;entryY=1.176;entryDx=0;entryDy=0;entryPerimeter=0;" edge="1" parent="1" target="L-X6BHngRJ-MXSbDgt_t-85">
          <mxGeometry width="160" relative="1" as="geometry">
            <mxPoint x="705" y="856.33" as="sourcePoint" />
            <mxPoint x="1080" y="856" as="targetPoint" />
            <Array as="points">
              <mxPoint x="1056" y="856" />
            </Array>
          </mxGeometry>
        </mxCell>
        <mxCell id="_Mt79U1lWhqighqn42hL-39" value="Use" style="endArrow=open;endSize=12;dashed=1;html=1;rounded=0;exitX=0.202;exitY=0.057;exitDx=0;exitDy=0;exitPerimeter=0;" edge="1" parent="1" source="_Mt79U1lWhqighqn42hL-19" target="L-X6BHngRJ-MXSbDgt_t-92">
          <mxGeometry width="160" relative="1" as="geometry">
            <mxPoint x="520" y="350" as="sourcePoint" />
            <mxPoint x="680" y="350" as="targetPoint" />
          </mxGeometry>
        </mxCell>
        <mxCell id="_Mt79U1lWhqighqn42hL-41" value="" style="endArrow=block;dashed=1;endFill=0;endSize=12;html=1;rounded=0;" edge="1" parent="1">
          <mxGeometry width="160" relative="1" as="geometry">
            <mxPoint x="510" y="81.23" as="sourcePoint" />
            <mxPoint x="650" y="81" as="targetPoint" />
          </mxGeometry>
        </mxCell>
        <mxCell id="_Mt79U1lWhqighqn42hL-42" value="Use" style="endArrow=open;endSize=12;dashed=1;html=1;rounded=0;" edge="1" parent="1" source="L-X6BHngRJ-MXSbDgt_t-7" target="L-X6BHngRJ-MXSbDgt_t-59">
          <mxGeometry width="160" relative="1" as="geometry">
            <mxPoint x="160" y="60" as="sourcePoint" />
            <mxPoint x="320" y="60" as="targetPoint" />
          </mxGeometry>
        </mxCell>
        <mxCell id="_Mt79U1lWhqighqn42hL-43" value="Use" style="endArrow=open;endSize=12;dashed=1;html=1;rounded=0;exitX=0.478;exitY=1.097;exitDx=0;exitDy=0;exitPerimeter=0;" edge="1" parent="1" source="L-X6BHngRJ-MXSbDgt_t-23" target="L-X6BHngRJ-MXSbDgt_t-63">
          <mxGeometry width="160" relative="1" as="geometry">
            <mxPoint x="320" y="220" as="sourcePoint" />
            <mxPoint x="480" y="220" as="targetPoint" />
            <Array as="points">
              <mxPoint x="779" y="235" />
            </Array>
          </mxGeometry>
        </mxCell>
        <mxCell id="_Mt79U1lWhqighqn42hL-44" value="Use" style="endArrow=open;endSize=12;dashed=1;html=1;rounded=0;entryX=-0.002;entryY=0.027;entryDx=0;entryDy=0;entryPerimeter=0;exitX=-0.011;exitY=0.918;exitDx=0;exitDy=0;exitPerimeter=0;" edge="1" parent="1" source="L-X6BHngRJ-MXSbDgt_t-29" target="_Mt79U1lWhqighqn42hL-16">
          <mxGeometry width="160" relative="1" as="geometry">
            <mxPoint x="140" y="374.17" as="sourcePoint" />
            <mxPoint x="300" y="374.17" as="targetPoint" />
          </mxGeometry>
        </mxCell>
        <mxCell id="_Mt79U1lWhqighqn42hL-45" value="Use" style="endArrow=open;endSize=12;dashed=1;html=1;rounded=0;exitX=1.196;exitY=0.01;exitDx=0;exitDy=0;exitPerimeter=0;" edge="1" parent="1" source="_Mt79U1lWhqighqn42hL-21" target="L-X6BHngRJ-MXSbDgt_t-72">
          <mxGeometry width="160" relative="1" as="geometry">
            <mxPoint x="240" y="640" as="sourcePoint" />
            <mxPoint x="194" y="630" as="targetPoint" />
          </mxGeometry>
        </mxCell>
        <mxCell id="_Mt79U1lWhqighqn42hL-46" value="Use" style="endArrow=open;endSize=12;dashed=1;html=1;rounded=0;" edge="1" parent="1" source="L-X6BHngRJ-MXSbDgt_t-49" target="L-X6BHngRJ-MXSbDgt_t-76">
          <mxGeometry width="160" relative="1" as="geometry">
            <mxPoint x="450" y="860" as="sourcePoint" />
            <mxPoint x="250" y="860" as="targetPoint" />
          </mxGeometry>
        </mxCell>
      </root>
    </mxGraphModel>
  </diagram>
</mxfile>
